:SAMPLES-PER-SECOND 30
:FRAME-RANGE 1-2091
:FULLY-SPECIFIED
:DEGREES
719
root  -3.51591 38.8793 -92.5246 5.11113 -22.8954 -0.641602
RightUpLeg  2.27172 -2.56754 -3.88965
RightLeg  13.8324 10.8479 1.98312
RightFoot  -20.3836 0.00109258 1.75925
RightToes  5.38607e-012 1.2921e-014 -6.02303e-014
Spine  -4.65031 -3.39123 -0.749343
Spine1  9.14625 -3.15246 -1.77002
HEad  21.6451 5.3129 1.16323
LeftShoulder1  0.91697 0.274783 -24.2823
LeftArm  -1.53132 15.7295 -43.1863
LeftForeArm  38.535 7.71435 -13.5689
LeftHand  -0.0246549 5.67 1.77256
RightShoulder  1.33995 1.00832 24.9301
RightArm  -23.2153 0.150724 34.6228
RightForeArm  38.9824 15.0183 5.0234
RightHand  -0.369276 -2.92747 -17.0425
LeftUpLeg  -29.0783 2.39432 5.02189
LeftLeg  6.66497 13.5861 3.73261
LeftFoot  -0.971876 0.541036 -5.89633
LeftToes  -7.20997e-011 3.75522e-011 -2.80735e-011
720
root  -3.69117 38.57 -91.3451 4.71503 -23.3588 -0.769562
RightUpLeg  4.33301 -1.51809 -4.20584
RightLeg  14.5862 10.2009 1.91108
RightFoot  -22.2242 0.0270737 1.86452
RightToes  5.38607e-012 1.2921e-014 -6.02303e-014
Spine  -4.65532 -3.17136 -1.19716
Spine1  9.18333 -2.7878 -2.22949
HEad  21.1631 7.34624 1.1841
LeftShoulder1  0.930553 0.195405 -23.9301
LeftArm  -1.54303 14.1441 -43.2742
LeftForeArm  39.7567 7.63493 -13.7283
LeftHand  -0.0239698 5.90577 1.47052
RightShoulder  1.40228 1.08939 25.8243
RightArm  -20.7816 0.509151 36.5432
RightForeArm  37.7451 15.9026 5.12307
RightHand  -0.405625 -2.64689 -16.8658
LeftUpLeg  -29.9198 2.94717 5.7251
LeftLeg  8.35616 13.4319 3.7597
LeftFoot  -0.42736 0.635899 -6.62625
LeftToes  -7.20997e-011 3.75522e-011 -2.80735e-011
721
root  -3.82054 38.2491 -90.0891 4.1953 -23.9657 -0.784744
RightUpLeg  6.39298 0.47973 -4.55726
RightLeg  15.6131 8.63546 1.80849
RightFoot  -23.8816 0.107039 2.4473
RightToes  5.38607e-012 1.2921e-014 -6.02303e-014
Spine  -4.94956 -2.75317 -1.50347
Spine1  9.66156 -2.14842 -2.9561
HEad  20.6311 8.84248 1.10821
LeftShoulder1  0.887445 0.298835 -23.5036
LeftArm  -1.95515 11.8792 -43.6874
LeftForeArm  40.6095 7.60189 -13.7323
LeftHand  -0.0270335 6.23662 1.34161
RightShoulder  1.64892 1.78322 26.3755
RightArm  -20.04 1.82276 38.3582
RightForeArm  36.3866 16.1207 5.17633
RightHand  -0.443055 -2.43122 -17.1271
LeftUpLeg  -30.272 3.24226 5.81872
LeftLeg  11.2225 15.9556 4.61013
LeftFoot  -1.52823 0.572403 -6.55761
LeftToes  -7.20997e-011 3.75522e-011 -2.80735e-011
722
root  -3.89767 38.1065 -88.8065 3.64281 -24.5222 -0.577484
RightUpLeg  8.20384 3.1567 -5.1542
RightLeg  16.8136 7.09648 2.00391
RightFoot  -24.0987 0.281741 3.98123
RightToes  5.38607e-012 1.2921e-014 -6.02303e-014
Spine  -5.21092 -2.25885 -2.12385
Spine1  10.1632 -1.36074 -3.88684
HEad  20.3225 9.95094 0.919236
LeftShoulder1  0.847375 0.41311 -23.2718
LeftArm  -2.10514 9.63754 -44.163
LeftForeArm  40.4342 7.61327 -13.7154
LeftHand  -0.0213629 6.20725 1.63955
RightShoulder  1.75882 2.03436 26.9424
RightArm  -20.3921 4.07986 40.5897
RightForeArm  34.8397 16.5598 4.97346
RightHand  -0.478518 -2.20829 -17.2413
LeftUpLeg  -30.4448 3.04996 5.27157
LeftLeg  15.0514 18.6431 6.24601
LeftFoot  1.72782 0.551947 -4.90924
LeftToes  -7.20997e-011 3.75522e-011 -2.80735e-011
723
root  -3.91661 38.0103 -87.3811 2.89217 -24.1109 -0.123672
RightUpLeg  9.6742 4.63643 -6.17804
RightLeg  19.5282 6.89384 2.50206
RightFoot  -23.5125 0.50272 6.20739
RightToes  5.38607e-012 1.2921e-014 -6.02303e-014
Spine  -5.34083 -1.84721 -3.08911
Spine1  10.2076 -0.93886 -3.82478
HEad  20.4684 10.3736 1.02631
LeftShoulder1  0.861051 0.369461 -23.304
LeftArm  -1.84132 7.03647 -44.6327
LeftForeArm  39.3499 7.63822 -13.7705
LeftHand  -0.0169421 6.21163 2.00176
RightShoulder  1.8249 2.11741 27.688
RightArm  -22.3925 7.08074 42.483
RightForeArm  32.6789 16.5402 4.71185
RightHand  -0.581995 -1.40048 -16.8245
LeftUpLeg  -30.42 0.630543 4.80802
LeftLeg  19.5571 18.6481 7.55171
LeftFoot  3.66315 0.513214 -4.06573
LeftToes  -7.20997e-011 3.75522e-011 -2.80735e-011
724
root  -3.87778 37.965 -85.8804 2.14841 -22.6705 0.778137
RightUpLeg  10.2814 5.06502 -7.81169
RightLeg  23.9166 7.70025 3.50982
RightFoot  -21.8387 0.67236 8.91892
RightToes  5.38607e-012 1.2921e-014 -6.02303e-014
Spine  -5.65531 -1.36542 -3.77474
Spine1  10.2662 -0.376446 -4.10612
HEad  21.0119 9.39059 1.39482
LeftShoulder1  1.00445 -0.159774 -22.9466
LeftArm  -0.763101 3.80332 -45.8506
LeftForeArm  37.8625 7.59761 -14.0644
LeftHand  -0.00918187 5.98903 2.49137
RightShoulder  1.8784 2.24232 27.9063
RightArm  -26.1538 9.52777 44.356
RightForeArm  30.964 16.7059 4.08975
RightHand  -0.662308 -0.853515 -16.8895
LeftUpLeg  -30.1824 -1.21467 2.80318
LeftLeg  23.3222 17.0166 8.19596
LeftFoot  2.99671 0.246335 -2.10327
LeftToes  -7.20997e-011 3.75522e-011 -2.80735e-011
725
root  -3.79658 38.0444 -84.3997 1.66409 -21.6021 1.6282
RightUpLeg  9.18498 6.27727 -9.10284
RightLeg  30.1924 7.84892 4.68446
RightFoot  -17.9945 0.579093 12.0301
RightToes  5.38607e-012 1.2921e-014 -6.02303e-014
Spine  -6.51839 -0.368134 -3.56658
Spine1  11.1916 0.882981 -5.35152
HEad  21.5328 7.65073 1.27741
LeftShoulder1  1.04891 -0.36361 -22.5259
LeftArm  -0.421362 -0.178395 -47.9379
LeftForeArm  37.8234 7.60092 -14.0599
LeftHand  -0.0165611 6.0902 2.30758
RightShoulder  2.03579 2.88918 26.8917
RightArm  -31.6073 11.799 45.757
RightForeArm  29.6604 16.9002 3.14466
RightHand  -0.748957 -0.257093 -16.9246
LeftUpLeg  -28.8413 -2.60572 0.786117
LeftLeg  24.8486 16.3375 8.42262
LeftFoot  2.22712 0.0196793 -0.278852
LeftToes  -7.20997e-011 3.75522e-011 -2.80735e-011
726
root  -3.69389 38.2231 -82.9801 1.54906 -19.9416 2.29509
RightUpLeg  5.65556 5.88097 -10.1637
RightLeg  39.3528 6.23239 5.19122
RightFoot  -11.0063 -0.115123 13.6292
RightToes  5.38607e-012 1.2921e-014 -6.02303e-014
Spine  -6.6679 0.304065 -3.31855
Spine1  10.9026 1.6581 -6.15878
HEad  21.8752 6.20117 0.843568
LeftShoulder1  1.09557 -0.587622 -22.0538
LeftArm  1.35064 -3.2127 -49.947
LeftForeArm  36.3052 7.59169 -14.2348
LeftHand  -0.0209584 5.74703 2.46742
RightShoulder  2.1411 3.41044 25.8787
RightArm  -35.3933 14.4118 45.9401
RightForeArm  26.9912 17.7892 2.61748
RightHand  -0.763123 -0.0534959 -16.604
LeftUpLeg  -27.0602 -3.06803 -1.29967
LeftLeg  25.1279 15.3781 8.06204
LeftFoot  0.0911969 0.0378359 -0.383595
LeftToes  -7.20997e-011 3.75522e-011 -2.80735e-011
